<svg width="167" height="69" fill="none" xmlns="http://www.w3.org/2000/svg"><path d="M103.521 5.922l.647.763 2.101-1.781-2.754.018.006 1zm-.329 4.322l-.879.476.006.01.873-.486zm2.82 3.283l-.725.69.009.008.009.01.707-.708zm1.062 1.16l-.76.65.007.008.006.007.747-.665zm.94 1.209l-.844.536.003.006.841-.542zm.427 4.113l-.897-.442-.005.01.902.432zm-1.16 1.538l.677.737-.677-.737zm-1.916 1.136l-.36-.933h-.003l.363.933zm-2.564.512l-.821-.57-1.153 1.657 2.018-.088-.044-.999zm.135-2.429l-.93.369.002.006.928-.375zm-.782-1.38l-.815.58.002.003.813-.582zm-1.892-2.319l-.738.675.004.004.734-.679zm-1.452-1.623l-.772.636.005.006.005.006.762-.648zm-.916-1.233l.824-.567-.003-.004-.821.57zm-.11-5.59l-.813-.583.813.582zm2.405-1.966l-.427-.905-.003.002.43.903zm7.397 6.64h-1v1h1v-1zm-.427-2.441l.947-.322-.001-.003-.946.325zm-2.807-3.955l-.994-.11-.063.561.449.344.608-.795zm3.137-.476l-.287.958h.003l.284-.958zm1.892.683l.986-.164-.086-.516-.472-.223-.428.903zm-.11 3.553l.992.125v-.001l-.992-.124zm-.415 2.148l.928.371.016-.038.012-.039-.956-.294zm-.525.342l.316.949.008-.003.008-.003-.332-.943zm-6.592 8.984l.985.174.159-.902-.884-.238-.26.966zm-.451 1.111v1h.39l.287-.264-.677-.736zm-5.567-1.172l-.999.046.024.515.433.28.542-.84zm.55-5.285l.967.254.003-.012-.97-.242zm.415-.489l.624.781.008-.006.008-.006-.64-.769zm.659-.305l.979-.204-.167-.796h-.812v1zm1 2.698l-.882.47.003.005.88-.475zm1.649 2.295l-.717.698.01.009.707-.707zm2.881-15.826c-.847.718-1.318 1.652-1.318 2.752h2c0-.462.172-.855.611-1.227l-1.293-1.525zm-1.318 2.752c0 .963.265 1.902.756 2.808l1.758-.953c-.356-.657-.514-1.271-.514-1.855h-2zm.762 2.819a9.32 9.32 0 001.683 2.213l1.383-1.445a7.325 7.325 0 01-1.32-1.743l-1.746.975zm1.683 2.213c.565.54.992.963 1.285 1.272l1.45-1.377c-.326-.343-.778-.79-1.352-1.34l-1.383 1.445zm1.303 1.29c.294.295.63.662 1.009 1.104l1.519-1.302a22.17 22.17 0 00-1.114-1.216l-1.414 1.415zm1.022 1.118c.376.423.653.782.843 1.08l1.687-1.073a10.545 10.545 0 00-1.037-1.337l-1.493 1.33zm.846 1.085c.512.794.683 1.367.683 1.753h2c0-.932-.391-1.889-1.002-2.836l-1.681 1.084zm.683 1.753c0 .505-.106.959-.312 1.377l1.794.884a5.061 5.061 0 00.518-2.26h-2zm-.317 1.388a4.034 4.034 0 01-.935 1.233l1.354 1.473a6.044 6.044 0 001.385-1.843l-1.804-.863zm-.934 1.233c-.385.353-.908.672-1.6.939l.719 1.866c.871-.336 1.625-.774 2.234-1.332l-1.353-1.473zm-1.603.94c-.659.256-1.404.409-2.244.445l.087 1.998c1.031-.044 1.995-.234 2.883-.58l-.726-1.863zm-1.38 2.015c.363-.52.57-1.107.57-1.743h-2c0 .179-.053.373-.212.601l1.642 1.142zm.57-1.743a4.34 4.34 0 00-.329-1.631l-1.855.749c.128.316.184.608.184.882h2zm-.327-1.625a7.548 7.548 0 00-.898-1.594l-1.626 1.165c.316.44.531.828.665 1.165l1.859-.736zm-.896-1.59a24.428 24.428 0 00-1.973-2.42l-1.468 1.358a22.31 22.31 0 011.811 2.22l1.63-1.159zM101 16.392a70.487 70.487 0 01-1.428-1.597l-1.524 1.296c.29.34.784.893 1.476 1.65l1.476-1.35zm-1.42-1.586a17.134 17.134 0 01-.862-1.163l-1.648 1.134c.352.511.675.947.968 1.302l1.543-1.272zm-.865-1.167c-.575-.828-.822-1.597-.822-2.322h-2c0 1.212.42 2.371 1.18 3.464l1.642-1.142zm-.822-2.322c0-.748.225-1.446.704-2.116l-1.626-1.164c-.709.99-1.078 2.091-1.078 3.28h2zm.704-2.116c.487-.68 1.15-1.23 2.022-1.644l-.86-1.806c-1.147.546-2.086 1.306-2.788 2.286l1.626 1.164zm2.019-1.643c.876-.414 1.843-.63 2.912-.637l-.013-2c-1.34.01-2.595.282-3.753.828l.854 1.81zm7.97 5.736a8.56 8.56 0 00-.48-2.763l-1.894.644c.254.747.374 1.452.374 2.12h2zm-.481-2.766c-.622-1.812-1.671-3.298-3.146-4.425l-1.215 1.59c1.146.875 1.969 2.026 2.469 3.485l1.892-.65zm-2.76-3.52a.647.647 0 01-.057.208c-.02.04-.036.06-.036.061a1.384 1.384 0 01.13-.116l-1.231-1.576c-.166.13-.332.28-.468.452a1.48 1.48 0 00-.325.75l1.987.221zm.037.153c.045-.035.082-.06.111-.08a.654.654 0 01.057-.032c.009-.005.002 0-.018.005a.477.477 0 01-.118.014v-2c-.524 0-.967.286-1.263.517l1.231 1.576zm.032-.093c.467 0 1.059.094 1.788.312l.573-1.916c-.849-.254-1.641-.396-2.361-.396v2zm1.791.313c.774.229 1.35.44 1.748.628l.856-1.807c-.53-.251-1.216-.496-2.036-.74l-.568 1.919zm1.189-.111c.026.153.048.505.048 1.117h2c0-.609-.019-1.111-.075-1.446l-1.973.329zm.048 1.117c0 .545-.052 1.257-.163 2.147l1.984.248c.117-.934.179-1.736.179-2.395h-2zm-.163 2.146c-.111.877-.24 1.529-.379 1.979l1.912.588c.187-.608.334-1.388.451-2.317l-1.984-.25zm-.352 1.902a.726.726 0 01.143-.227c.039-.04.068-.06.072-.063l-.028.014a1.331 1.331 0 01-.114.046l.663 1.886c.19-.067.391-.153.571-.27.166-.108.416-.309.55-.643l-1.857-.743zm.088-.236c-.238.08-.373.095-.429.095v2c.352 0 .713-.082 1.061-.197l-.632-1.898zm-7.261 9.76c-.041.232-.087.39-.127.49-.043.104-.061.099-.016.058l1.354 1.472c.463-.426.656-1.089.759-1.673l-1.97-.348zm.534.284c-.774 0-1.718-.1-2.842-.312l-.371 1.965c1.203.227 2.277.347 3.213.347v-2zm-2.842-.312c-1.129-.213-1.82-.465-2.182-.7l-1.085 1.68c.695.45 1.697.759 2.896.985l.37-1.965zm-1.726.095a17.298 17.298 0 01-.011-.724h-2c0 .338.004.613.013.815l1.998-.091zm-.011-.724a16.7 16.7 0 01.529-4.262l-1.935-.509a18.7 18.7 0 00-.594 4.771h2zm.532-4.274a.603.603 0 01-.063.158c-.014.025-.023.034-.017.027a1.82 1.82 0 01.15-.135l-1.25-1.562c-.151.122-.3.256-.424.402a1.56 1.56 0 00-.337.625l1.94.485zm.085.038a.984.984 0 01.128-.09c.009-.004-.031.016-.11.016v-2c-.536 0-.98.271-1.299.537l1.28 1.537zm-.96-.87c.209.998.578 1.986 1.097 2.963l1.766-.938a9.199 9.199 0 01-.905-2.434l-1.958.41zm1.1 2.97c.525.97 1.127 1.813 1.811 2.517l1.433-1.396c-.536-.55-1.033-1.237-1.485-2.073l-1.759.951zm1.82 2.526c.68.68 1.411 1.196 2.194 1.406l.519-1.931c-.308-.083-.741-.332-1.298-.89l-1.414 1.415zm20.153-7.14l-.989-.146-.151 1.027 1.032.113.108-.994zm4.249.72h1v-.744l-.713-.214-.287.958zm-.281.989l.061.998.413-.025.275-.31-.749-.663zm-4.297.634l-.218-.976-.685.153-.089.696.992.128zm-.549 5.298l-.997-.08-.003.04v.04h1zm-.391.489l.631.776.007-.006.007-.006-.645-.764zm-6.36.317l-.964-.266-.35 1.266h1.314v-1zm2.417-15.82l.997.078.003-.039v-.04h-1zm6.751-.794l.974.225.282-1.225h-1.256v1zm3.71 7.398l-.987.157.134.843h.853v-1zm-1.11-3.675l-.913.408.913-.408zm-1.648-2.746l-.995-.104-.046.445.3.33.741-.671zm.354-.977v-1h-.5l-.3.4.8.6zm4.431 0l.997.072.078-1.072h-1.075v1zm-.366 3.186l.99.14-.99-.14zm-.599 3.394l.974.229.002-.009-.976-.22zm-1.623 5.017l-.786-.618-.033.042-.029.045.848.53zm1.355-.806l.993.114.128-1.114h-1.121v1zm-.781 4.944l.912.41.031-.069.02-.073-.963-.268zm-5.457.879l-.557-.83-2.729 1.83h3.286v-1zm.087-7.453c1.927.21 3.266.443 4.069.684l.575-1.916c-.988-.296-2.48-.544-4.427-.756l-.217 1.988zm3.357-.274c0 .158-.017.256-.033.31-.014.05-.022.044.003.016l1.498 1.325c.42-.475.532-1.095.532-1.651h-2zm.658-.01c-1.396.086-2.881.306-4.454.658l.436 1.951c1.487-.332 2.866-.535 4.14-.612l-.122-1.996zm-5.228 1.506a111.706 111.706 0 00-.554 5.345l1.993.16c.146-1.808.327-3.558.545-5.25l-1.984-.255zm-.557 5.425c0-.173.051-.296.075-.346.014-.029.027-.049.034-.06a.386.386 0 01.012-.017l-.01.012a1.822 1.822 0 01-.147.136l1.29 1.528c.153-.13.306-.273.429-.427.09-.112.317-.411.317-.826h-2zm-.022-.287a1.184 1.184 0 01-.16.11c-.019.009.026-.017.12-.017v2c.538 0 .989-.287 1.302-.541l-1.262-1.552zm-.04.093h-5.689v2h5.689v-2zm-4.725 1.266c1.114-4.034 1.927-9.378 2.45-16.008L113.23 7.1c-.518 6.57-1.317 11.773-2.384 15.633l1.928.532zm2.453-16.086a.813.813 0 01-.121.428.219.219 0 01-.015.02s.011-.013.039-.04a2.57 2.57 0 01.119-.099l-1.238-1.57a3.142 3.142 0 00-.447.416c-.093.111-.337.414-.337.845h2zm.022.31a.982.982 0 01.174-.117c.025-.012-.017.013-.11.013v-2c-.533 0-.985.282-1.302.532l1.238 1.571zm.064-.104h5.665v-2h-5.665v2zm4.69-1.224a105.342 105.342 0 00-1.553 8.245l1.979.292c.403-2.733.911-5.43 1.523-8.088l-1.949-.45zm5.673 7.465a15.629 15.629 0 00-1.185-3.925l-1.826.815a13.642 13.642 0 011.036 3.424l1.975-.314zm-1.185-3.925c-.565-1.265-1.166-2.289-1.82-3.01l-1.482 1.342c.452.5.95 1.307 1.476 2.483l1.826-.815zm-1.567-2.236c.026-.247.093-.391.16-.48l-1.6-1.2c-.325.433-.493.94-.549 1.473l1.989.207zm-.64-.08h4.431v-2h-4.431v2zm3.433-1.072c-.054.757-.173 1.794-.359 3.12l1.981.277c.188-1.344.314-2.43.373-3.253l-1.995-.144zm-.359 3.119a41.397 41.397 0 01-.583 3.312l1.951.441c.219-.97.423-2.13.613-3.474l-1.981-.28zm-.581 3.304a.55.55 0 01.054-.145l.014-.023a1.412 1.412 0 01-.15.142l1.281 1.536c.152-.127.3-.267.424-.42.117-.145.259-.358.324-.632l-1.947-.458zm-.082-.027a1.043 1.043 0 01-.131.093c-.01.005.036-.02.124-.02v2c.537 0 .978-.279 1.288-.536l-1.281-1.537zm.218 5.89c-.017.023-.024.028-.011.015l.069-.059a5.07 5.07 0 01.321-.23l-1.109-1.663c-.307.204-.641.446-.842.702l1.572 1.236zm.379-.273c.127-.085.212-.13.262-.15.023-.01.03-.011.021-.01a.4.4 0 01-.093.01v-2c-.501 0-.966.264-1.299.486l1.109 1.664zm-.804-1.264c-.277 2.424-.531 3.998-.751 4.79l1.927.536c.268-.965.535-2.687.811-5.098l-1.987-.227zm-.699 4.648c.005-.012-.002.007-.041.056a1.843 1.843 0 01-.18.195l1.387 1.44c.256-.245.508-.537.658-.87l-1.824-.821zm-.221.251a1.328 1.328 0 01-.115.098.651.651 0 01.271-.06v2c.316 0 .575-.117.747-.218.179-.107.341-.242.484-.38l-1.387-1.44zm.156.038h-4.48v2h4.48v-2zm-3.923 1.83a17.585 17.585 0 005.174-5.316l-1.696-1.062a15.578 15.578 0 01-4.592 4.717l1.114 1.662zm15.52-.83l-.96.28.21.72h.75v-1zm-5.908-15.82h-1v.222l.094.2.906-.422zm.39-.476l-.619-.786-.006.005-.005.005.63.776zm6.934-.318l.96-.28-.211-.72h-.749v1zm2.673 8.228l-.938.346.001.002.937-.348zm3.223 7.58h1v-.223l-.095-.202-.905.425zm-.391.489l.631.776.007-.006.007-.006-.645-.764zm-2.173-8.484l-.957-.289-.389 1.289h1.346v-1zm.55-5.42l-.974.229.001.004.973-.233zm-.513-1.6h-1v.182l.064.17.936-.351zm.391-.475l-.619-.786-.006.005-.006.005.631.776zm4.577-.318l.837.547 1.012-1.547h-1.849v1zm-2.38 3.809l.863.505-.863-.505zm-1.563 3.174l-.928-.372-.004.01-.004.01.936.352zm-9.118 1.77l.954.297.405-1.297h-1.359v1zm-.037 7.055h1v-.182l-.064-.17-.936.352zm-.403.489l.631.776.002-.002-.633-.774zm-4.577.317l-.838-.546L125.151 24h1.845v-1zm3.942-7.056l.927.376.005-.012.005-.012-.937-.352zm.428-.5l-.64-.768-.007.005-.006.005.653.758zm4.915 7.276c-1.649-5.66-3.636-10.982-5.962-15.963l-1.812.846c2.279 4.882 4.231 10.107 5.854 15.677l1.92-.56zm-5.868-15.54a.789.789 0 01-.115.416.291.291 0 01-.015.02s.01-.012.037-.038a2.22 2.22 0 01.114-.098l-1.261-1.553a3.15 3.15 0 00-.436.42c-.093.114-.324.413-.324.833h2zm.009.31a.973.973 0 01.175-.117c.024-.012-.017.013-.11.013v-2c-.533 0-.986.282-1.303.532l1.238 1.571zm.065-.104h6.25v-2h-6.25v2zm5.29-.72c.932 3.19 1.83 5.956 2.695 8.294l1.876-.693c-.844-2.284-1.728-5.003-2.651-8.161l-1.92.56zm2.696 8.296c.866 2.334 1.952 4.888 3.255 7.658l1.81-.851c-1.285-2.731-2.348-5.232-3.19-7.503l-1.875.696zm3.16 7.232a.785.785 0 01.118-.419.049.049 0 00.003-.004l-.01.012a1.822 1.822 0 01-.147.136l1.29 1.528c.153-.13.306-.273.429-.427.09-.112.317-.411.317-.826h-2zm-.021-.287a1.35 1.35 0 01-.16.11c-.02.009.025-.017.119-.017v2c.538 0 .989-.287 1.302-.541l-1.261-1.552zm-.041.093h-6.25v2h6.25v-2zm-.544-7.512c.481-1.596.738-3.033.738-4.293h-2c0 1.002-.207 2.235-.653 3.715l1.915.578zm.738-4.293c0-.595-.054-1.148-.174-1.65l-1.945.467c.075.313.119.703.119 1.183h2zm-.173-1.645a14.614 14.614 0 00-.55-1.721l-1.872.702c.237.632.391 1.12.475 1.477l1.947-.458zm-.486-1.37a.807.807 0 01-.078.352.586.586 0 01-.037.064l-.014.02a1.782 1.782 0 01.15-.136l-1.261-1.553c-.154.126-.31.267-.435.42-.094.114-.325.413-.325.833h2zm.009.31a.9.9 0 01.175-.117c.025-.012-.017.013-.11.013v-2c-.533 0-.985.282-1.302.532l1.237 1.571zm.065-.104h3.894v-2h-3.894v2zm3.057-1.547a92.1 92.1 0 00-2.406 3.851l1.726 1.01a90.674 90.674 0 012.354-3.767l-1.674-1.094zm-2.406 3.851a24.794 24.794 0 00-1.628 3.307l1.857.743a22.82 22.82 0 011.497-3.04l-1.726-1.01zm-1.636 3.328c.018-.048.035-.075.038-.08l-.013.016a2.092 2.092 0 01-.183.183l1.335 1.489c.239-.215.553-.526.696-.906l-1.873-.703zm-.158.119a.9.9 0 01-.116.088c-.002.001.051-.026.148-.026v2c.556 0 1.001-.302 1.303-.573l-1.335-1.49zm-8.979 1.704c-.48 1.541-.741 2.905-.741 4.07h2c0-.887.203-2.037.65-3.475l-1.909-.595zm-.741 4.07c0 1.168.25 2.383.724 3.637l1.871-.707c-.406-1.074-.595-2.048-.595-2.93h-2zm.659 3.283c0-.18.055-.306.08-.357a.495.495 0 01.045-.074l.003-.004-.003.003-.008.01-.032.031a2.109 2.109 0 01-.121.106l1.266 1.548a3.23 3.23 0 00.441-.425c.09-.11.329-.413.329-.838h-2zm-.033-.287a1.35 1.35 0 01-.16.11c-.02.009.025-.017.119-.017v2c.538 0 .989-.287 1.302-.541l-1.261-1.552zm-.041.093h-3.906v2h3.906v-2zm-3.068 1.546c1.923-2.955 3.279-5.37 4.031-7.226l-1.853-.752c-.68 1.677-1.953 3.966-3.854 6.886l1.676 1.092zm4.041-7.25a.469.469 0 01-.042.085c-.005.009-.004.005.009-.01.028-.032.083-.089.177-.17l-1.306-1.515c-.242.21-.565.518-.711.907l1.873.703zm.131-.084a1.048 1.048 0 01.131-.093c.01-.004-.036.02-.124.02v-2c-.537 0-.978.279-1.287.537l1.28 1.536zM98.883 53l-.964-.267L97.57 54h1.314v-1zm2.551-15.82l.997.08.003-.04v-.04h-1zm.391-.476l-.619-.786-.006.005-.006.005.631.776zm6.115-.318l.973.231.293-1.23h-1.266v1zm-2.294 15.808l-.997-.078-.003.04v.038h1zm-.391.489l.63.776.008-.006.007-.006-.645-.764zm5.029-8.655h-1v1h1v-1zm-.537-3.711l-.968.25.001.005.967-.255zm-1.135-2.954l-.992-.13-.048.372.208.313.832-.555zm.366-.977v-1h-.518l-.299.423.817.577zm3.796 0l.995.106.117-1.106h-1.112v1zm-1.037 6.836l.966.258.008-.029.006-.028-.98-.2zm-.598.5l.494.87.006-.003-.5-.866zm-15.723.294l-.998-.069-.073 1.069h1.071v-1zm.464-3.748l.988.156-.988-.156zm.55-3.015l-.945-.33-.012.035-.01.036.966.259zm.414-.55l.68.734-.68-.733zm4.273-.317l.767.642 1.372-1.642h-2.139v1zM99.2 39.133l-.882-.471-.004.007.886.464zm-1.282 2.441l-.885-.465-.002.003.887.462zm-.94 1.782l.878.48.002-.004-.88-.476zm-.683.403l.394.92.009-.004-.403-.916zM104.57 52h-5.688v2h5.688v-2zm-4.724 1.267c1.218-4.4 2.076-9.74 2.584-16.007l-1.994-.161c-.5 6.185-1.344 11.392-2.518 15.634l1.928.534zm2.587-16.087a.806.806 0 01-.078.352.58.58 0 01-.037.064l-.014.02a1.802 1.802 0 01.15-.136l-1.261-1.553a3.066 3.066 0 00-.435.42c-.094.114-.325.413-.325.833h2zm.01.31a1.304 1.304 0 01.177-.12c.011-.005.006-.002-.014.003a.435.435 0 01-.111.013v-2c-.532 0-.983.29-1.29.532l1.238 1.571zm.052-.104h5.444v-2h-5.444v2zm4.472-1.23c-1.066 4.482-1.837 9.805-2.319 15.96l1.993.157c.478-6.085 1.237-11.3 2.271-15.656l-1.945-.462zm-2.322 16.038c0-.173.051-.296.075-.346.014-.029.027-.049.034-.06a.386.386 0 01.012-.017l-.01.012a1.822 1.822 0 01-.147.136l1.29 1.528c.153-.13.306-.273.429-.427.09-.112.317-.411.317-.826h-2zm-.022-.288a1.182 1.182 0 01-.156.108c-.019.008.02-.014.103-.014v2c.54 0 .992-.28 1.314-.541l-1.261-1.553zm6.66-7.878c0-1.22-.195-2.544-.57-3.966l-1.934.51c.342 1.296.504 2.446.504 3.456h2zm-.569-3.96c-.357-1.388-.768-2.506-1.271-3.26l-1.664 1.11c.311.466.656 1.318.999 2.648l1.936-.498zm-1.112-2.576c.031-.232.101-.4.192-.53l-1.634-1.153a3.155 3.155 0 00-.541 1.425l1.983.258zm-.625-.106h3.796v-2h-3.796v2zm2.802-1.105a71.167 71.167 0 01-1.023 6.74l1.96.402a73.709 73.709 0 001.052-6.931l-1.989-.211zm-1.009 6.684a.788.788 0 01.13-.269c.025-.031.038-.039.02-.024a1.114 1.114 0 01-.095.07 3.483 3.483 0 01-.188.115l1.001 1.732a4.09 4.09 0 00.566-.383c.12-.101.396-.344.498-.726l-1.932-.515zm-.126-.112a2.144 2.144 0 01-.325.157c-.077.027-.082.018-.036.018v2c.483 0 .958-.214 1.349-.436l-.988-1.739zm-14.231 1.23c.062-.91.212-2.126.454-3.659l-1.976-.312c-.246 1.56-.406 2.841-.474 3.835l1.996.137zm.454-3.66c.246-1.567.421-2.517.527-2.911l-1.932-.518c-.138.517-.329 1.577-.571 3.119l1.976.31zm.505-2.84c-.015.043-.026.048 0 .013.025-.032.072-.086.15-.159l-1.358-1.467c-.263.244-.543.56-.68.953l1.888.66zm.152-.147c.038-.035.068-.06.09-.077l.033-.023s-.02.011-.057.023a.615.615 0 01-.185.027v-2c-.308 0-.564.108-.743.209a2.703 2.703 0 00-.5.376l1.362 1.465zm-.12-.05h3.712v-2h-3.711v2zm2.945-1.641c-.86 1.028-1.543 2-2.032 2.917l1.764.942c.406-.76 1.001-1.619 1.802-2.576l-1.534-1.283zm-2.035 2.924l-1.282 2.44 1.77.93 1.283-2.442-1.772-.928zm-1.284 2.443c-.406.78-.716 1.37-.932 1.77l1.76.95c.223-.414.539-1.013.946-1.796l-1.774-.924zm-.93 1.766a.823.823 0 01.178-.224c.018-.014.017-.01-.016.009a3.855 3.855 0 01-.37.181l.805 1.83a5.5 5.5 0 00.58-.288c.082-.048.173-.107.26-.177a1.27 1.27 0 00.318-.374l-1.755-.957zm-.2-.038c-.176.076-.31.124-.405.151-.105.031-.122.025-.08.025v2c.411 0 .871-.166 1.273-.338L95.9 42.84zm25.614 1.713l-.99-.146-.151 1.027 1.032.113.109-.994zm4.248.72h1v-.744l-.713-.214-.287.958zm-.281.989l.061.998.413-.025.275-.31-.749-.663zm-4.297.635l-.218-.977-.684.153-.09.696.992.128zm-.549 5.297l-.997-.08-.003.04v.04h1zm-.391.489l.631.776.007-.006.007-.006-.645-.764zm-6.36.317l-.964-.266-.35 1.266h1.314v-1zm2.417-15.82l.997.078.003-.039v-.04h-1zm6.751-.794l.974.225.282-1.225h-1.256v1zm3.711 7.398l-.988.157.134.843h.854v-1zm-1.111-3.675l-.913.408.913-.408zm-1.648-2.746l-.995-.104-.046.444.3.331.741-.671zm.354-.977v-1h-.5l-.3.4.8.6zm4.431 0l.997.072.078-1.072h-1.075v1zm-.366 3.186l.99.14-.99-.14zm-.598 3.394l.973.229.002-.009-.975-.22zm-1.624 5.017l-.786-.618-.033.042-.028.045.847.53zm1.355-.806l.994.114.127-1.114h-1.121v1zm-.781 4.944l.912.41.031-.069.02-.073-.963-.268zm-5.457.879l-.557-.83-2.729 1.83h3.286v-1zm.087-7.453c1.927.21 3.267.443 4.069.684l.575-1.916c-.988-.296-2.48-.544-4.427-.756l-.217 1.988zm3.357-.274c0 .158-.017.256-.032.31-.015.05-.023.044.002.016l1.498 1.325c.42-.475.532-1.095.532-1.651h-2zm.658-.01c-1.396.086-2.881.306-4.454.657l.436 1.952c1.487-.332 2.866-.535 4.14-.612l-.122-1.996zm-5.228 1.506a113.01 113.01 0 00-.554 5.345l1.994.16c.145-1.808.326-3.558.544-5.25l-1.984-.255zm-.557 5.425c0-.173.051-.296.076-.346.013-.029.026-.049.033-.06a.386.386 0 01.012-.017l-.01.012a1.822 1.822 0 01-.147.136l1.29 1.528c.153-.13.306-.273.429-.427.09-.112.317-.411.317-.826h-2zm-.021-.288c-.043.035-.079.06-.107.08a.411.411 0 01-.053.03c-.02.01.025-.016.119-.016v2c.538 0 .989-.287 1.302-.541l-1.261-1.553zm-.041.094h-5.689v2h5.689v-2zm-4.725 1.266c1.115-4.034 1.927-9.378 2.45-16.008l-1.994-.157c-.518 6.57-1.317 11.773-2.384 15.633l1.928.532zm2.453-16.086a.799.799 0 01-.121.428.23.23 0 01-.015.02s.011-.013.04-.04c.027-.025.066-.058.118-.099l-1.238-1.57a3.085 3.085 0 00-.446.416c-.094.111-.338.414-.338.845h2zm.022.31a.975.975 0 01.175-.117c.024-.012-.018.013-.11.013v-2c-.534 0-.986.282-1.303.532l1.238 1.571zm.065-.104h5.664v-2h-5.664v2zm4.689-1.224a105.34 105.34 0 00-1.553 8.245l1.979.292a103.14 103.14 0 011.523-8.088l-1.949-.45zm5.673 7.465a15.63 15.63 0 00-1.185-3.925l-1.826.815a13.642 13.642 0 011.036 3.424l1.975-.314zm-1.185-3.925c-.565-1.265-1.166-2.289-1.82-3.01l-1.482 1.343c.452.498.95 1.306 1.476 2.482l1.826-.816zM125 37.466c.025-.248.093-.392.159-.48l-1.6-1.2c-.325.433-.493.94-.549 1.473l1.99.207zm-.641-.08h4.431v-2h-4.431v2zm3.434-1.072c-.055.757-.174 1.794-.359 3.12l1.98.277c.189-1.344.314-2.43.373-3.253l-1.994-.144zm-.359 3.118a41.8 41.8 0 01-.584 3.313l1.951.441c.22-.97.423-2.13.613-3.474l-1.98-.28zm-.582 3.305a.589.589 0 01.054-.145c.013-.023.021-.031.014-.023a1.412 1.412 0 01-.15.142l1.281 1.536c.152-.127.3-.267.424-.42a1.59 1.59 0 00.324-.632l-1.947-.458zm-.082-.027a1.043 1.043 0 01-.131.093c-.01.005.036-.02.125-.02v2c.536 0 .978-.279 1.287-.536l-1.281-1.537zm.218 5.89c-.017.023-.024.028-.011.015a4.713 4.713 0 01.39-.289l-1.109-1.663c-.307.204-.641.446-.842.702l1.572 1.236zm.379-.273c.127-.085.212-.13.262-.15.023-.01.03-.011.021-.01a.4.4 0 01-.093.01v-2c-.5 0-.966.264-1.299.486l1.109 1.664zm-.803-1.264c-.278 2.424-.531 3.998-.752 4.79l1.927.536c.268-.965.536-2.687.812-5.098l-1.987-.227zm-.7 4.648c.005-.012-.002.007-.04.056a1.997 1.997 0 01-.181.195l1.387 1.44c.256-.245.508-.537.658-.87l-1.824-.821zm-.221.251c-.037.035-.065.06-.086.077-.022.017-.031.022-.028.02.002 0 .024-.014.065-.027a.657.657 0 01.205-.032v2c.317 0 .575-.117.747-.218.18-.106.342-.242.484-.38l-1.387-1.44zm.156.038h-4.48v2h4.48v-2zm-3.923 1.83a17.585 17.585 0 005.174-5.316l-1.695-1.062a15.581 15.581 0 01-4.593 4.718l1.114 1.66zm16.045-.83l-.992.124.109.876h.883v-1zm-2.405-13.184l-.897-.44-.164.333.093.359.968-.252zm1.209-2.636l-.907-.423-.008.018-.008.019.923.386zm.439-.489l-.64-.768-.007.005-.006.006.653.757zm4.504-.305l.991-.134-.117-.866h-.874v1zm1.343 8.216l-.983.182.001.004.982-.186zm1.66 7.592h1v-.128l-.032-.125-.968.253zm-.39.489l.63.776.008-.006.007-.006-.645-.764zm-10.437-1.844h-1v.027l1-.027zm.036 1.355h1v-.027l-1 .027zm-.402.489l.63.776.003-.002-.633-.774zm-4.566.317l-.861-.508-.889 1.508h1.75v-1zm5.982-11.987l.945-.327-.809-2.337-1.043 2.242.907.422zm-.061 2.527l-.988-.158-.002.011.99.147zm-.416 2.539l.985.173.001-.001-.986-.172zm-.378 2.356l-.991-.134-.132.974.972.148.151-.988zm2.551.598h1v-.668l-.616-.256-.384.924zm-.244 1.086l.086.996.47-.04.267-.388-.823-.568zm-2.502.33l-.176-.985-.824.147v.838h1zM143.597 52h-5.676v2h5.676v-2zm-4.684.876c-.638-5.092-1.447-9.531-2.429-13.311l-1.936.503c.955 3.674 1.75 8.025 2.381 13.056l1.984-.248zm-2.499-12.618c.478-.975.89-1.872 1.233-2.692l-1.845-.772a47.063 47.063 0 01-1.183 2.581l1.795.883zm1.217-2.655c-.018.038-.033.058-.033.059a2.32 2.32 0 01.219-.213l-1.306-1.515c-.238.205-.537.489-.693.823l1.813.846zm.173-.143a1.49 1.49 0 01.139-.1c.004-.002-.007.004-.032.011a.48.48 0 01-.124.015v-2c-.536 0-.975.297-1.263.537l1.28 1.537zm-.017-.074h3.881v-2h-3.881v2zm2.891-.865c.336 2.477.786 5.232 1.35 8.263l1.966-.365a170.747 170.747 0 01-1.335-8.167l-1.981.269zm1.351 8.267c.572 3.024 1.13 5.58 1.675 7.66l1.935-.507c-.53-2.021-1.078-4.528-1.645-7.525l-1.965.372zm1.642 7.406a.8.8 0 01.076-.346c.014-.029.027-.049.034-.06a.386.386 0 01.012-.017l-.01.012a2.152 2.152 0 01-.147.136l1.29 1.528c.153-.13.305-.273.429-.427.09-.112.316-.411.316-.826h-2zm-.021-.288a1.357 1.357 0 01-.103.077.47.47 0 01-.054.03c-.018.01.021-.013.104-.013v2c.54 0 .992-.28 1.314-.541l-1.261-1.553zm-10.806-1.04l.037 1.355 1.999-.054-.037-1.355-1.999.054zm.036 1.328a.79.79 0 01.081-.357.38.38 0 01.035-.06.3.3 0 01.009-.014l.003-.004-.002.003a.372.372 0 01-.009.01l-.032.031a2.109 2.109 0 01-.121.106l1.267 1.548c.157-.129.314-.272.44-.425.09-.11.329-.412.329-.838h-2zm-.033-.288a1.35 1.35 0 01-.16.11c-.019.01.025-.016.119-.016v2c.539 0 .989-.287 1.302-.541l-1.261-1.553zm-.041.094h-3.894v2h3.894v-2zm-3.032 1.508c1.313-2.228 3.325-6.265 6.026-12.074l-1.813-.843c-2.703 5.812-4.678 9.767-5.936 11.901l1.723 1.016zm4.175-12.168c.019.057.054.225.054.564h2c0-.427-.038-.853-.164-1.218l-1.89.654zm.054.564c0 .293-.046.776-.158 1.478l1.975.315c.116-.73.183-1.338.183-1.793h-2zm-.16 1.49a96.59 96.59 0 01-.411 2.512l1.971.345c.171-.982.311-1.838.419-2.565l-1.979-.293zm-.41 2.51a62.964 62.964 0 00-.385 2.397l1.982.267c.079-.583.202-1.353.372-2.316l-1.969-.347zm.455 3.52c1.158.176 1.908.361 2.319.532l.767-1.847c-.647-.269-1.598-.482-2.784-.663l-.302 1.977zm1.702-.391c0 .192-.016.328-.036.418-.021.092-.04.114-.031.1l1.646 1.136c.334-.484.421-1.09.421-1.654h-2zm.67.09c-.876.076-1.74.19-2.592.341l.351 1.97a27.038 27.038 0 012.413-.319l-.172-1.992zm-3.416 1.326v.39h2v-.39h-2zM158.929 53l-1-.024-.024 1.024h1.024v-1zm-.232-13.184l-.902-.431-.115.241.02.267.997-.077zm1.16-2.636l-.916-.401-.003.006-.003.007.922.388zm.439-.489l.638.77.008-.006.007-.006-.653-.758zm4.358-.305l.999.053.056-1.053h-1.055v1zm.733 15.808h1v-.067l-.009-.066-.991.133zm-.391.489l.631.776.007-.006.007-.006-.645-.764zm-9.058-.318l.907.423.037-.08.023-.087-.967-.256zm-.378.415l.6.8.011-.008.01-.008-.621-.784zm-2.405.22l-.986.166.141.834h.845v-1zm-2.954-11.926l-.985-.172-.046.266.094.253.937-.347zm.318-1.71l-.982-.19-.001.006.983.185zm.39-2.184l-.978-.21-.006.032-.005.032.989.146zm.415-.476l.628.778.007-.006.008-.006-.643-.766zm4.199-.318l.986-.17-.143-.83h-.843v1zm1.392 6.604l-.953.304.003.008.95-.312zm1.025 2.735l.949.317.124-.372-.161-.358-.912.413zm-8.007-1.55l.999-.02-.019-.98h-.98v1zm.219 4.662l-.995.098.001.008.994-.106zm.721 3.357h1v-.153l-.047-.147-.953.3zm-.403.489l.63.776.003-.002-.633-.774zm-4.578.317l-.922-.387-.582 1.387h1.504v-1zm1.892-4.663l.934.358.001-.002-.935-.356zm1.087-3.37l.968.249.032-.122v-.126h-1zM164.312 52h-5.383v2h5.383v-2zm-4.383 1.024c.049-2.01.073-4.057.073-6.14h-2c0 2.068-.024 4.098-.073 6.092l2 .048zm.073-6.14c0-2.106-.103-4.489-.308-7.145l-1.994.154c.202 2.618.302 4.948.302 6.991h2zm-.403-6.636c.288-.6.682-1.497 1.18-2.68l-1.844-.776a63.946 63.946 0 01-1.14 2.593l1.804.863zm1.174-2.667a.352.352 0 01-.035.065c-.003.005 0 0 .015-.017.03-.034.087-.09.181-.167l-1.275-1.541c-.248.205-.56.495-.718.858l1.832.801zm.176-.132a1.12 1.12 0 01.086-.067c.021-.015.033-.02.034-.022.005-.002-.049.026-.15.026v-2c-.542 0-.98.293-1.276.548l1.306 1.515zm-.03-.063h3.735v-2h-3.735v2zm2.737-1.053a69.083 69.083 0 00-.087 3.63h2c0-1.296.028-2.47.084-3.524l-1.997-.106zm-.087 3.63a92.5 92.5 0 00.827 12.365l1.982-.267a90.678 90.678 0 01-.809-12.098h-2zm.818 12.231c0-.173.051-.296.075-.346.014-.029.027-.049.034-.06a.386.386 0 01.012-.017l-.01.012a1.822 1.822 0 01-.147.136l1.29 1.528c.153-.13.306-.273.429-.427.09-.112.317-.411.317-.826h-2zm-.021-.288a1.34 1.34 0 01-.157.108c-.019.008.02-.014.103-.014v2c.54 0 .992-.28 1.315-.541l-1.261-1.553zm-9.334.036a.407.407 0 01.033-.057c.005-.008.005-.007-.003.002a1.017 1.017 0 01-.123.11l1.242 1.567c.23-.182.506-.438.664-.776l-1.813-.846zm-.072.038a1.053 1.053 0 01-.071.05l-.019.011a.65.65 0 01.226-.041v2c.469 0 .855-.263 1.064-.42l-1.2-1.6zm.136.02h-1.941v2h1.941v-2zm-.955.834a91.555 91.555 0 00-1.345-6.467l-1.943.473c.54 2.218.979 4.326 1.316 6.326l1.972-.332zm-1.345-6.467c-.55-2.26-1.102-4.143-1.657-5.64l-1.875.694c.518 1.4 1.049 3.203 1.589 5.42l1.943-.474zm-1.61-5.122c.031-.179.136-.74.315-1.695l-1.965-.37c-.179.949-.286 1.527-.32 1.722l1.97.343zm.314-1.689c.188-.964.322-1.71.398-2.23l-1.978-.292c-.07.473-.197 1.183-.383 2.14l1.963.382zm.387-2.167a.745.745 0 01-.08.21c-.018.03-.029.042-.022.033a2.296 2.296 0 01.167-.15l-1.256-1.557a3.4 3.4 0 00-.419.393c-.103.12-.28.344-.346.652l1.956.42zm.08.08a1.285 1.285 0 01.149-.106c.005-.002-.004.003-.027.009a.464.464 0 01-.118.014v-2c-.543 0-.99.3-1.289.551l1.285 1.533zm.004-.083h3.552v-2h-3.552v2zm2.567-.83c.56 3.249 1.034 5.516 1.424 6.738l1.906-.608c-.342-1.072-.796-3.208-1.359-6.47l-1.971.34zm1.427 6.746c.38 1.156.734 2.105 1.064 2.835l1.823-.825c-.289-.637-.618-1.511-.987-2.634l-1.9.624zm1.027 2.105a109.186 109.186 0 00-2.02 6.702l1.933.512a106.917 106.917 0 011.984-6.58l-1.897-.634zm-8.059-1.213c.041 2.042.114 3.628.224 4.741l1.991-.196c-.102-1.034-.175-2.558-.216-4.585l-1.999.04zm.225 4.749c.122 1.148.377 2.332.761 3.552l1.907-.6a16.32 16.32 0 01-.679-3.163l-1.989.21zm.715 3.251c0-.18.055-.306.08-.357a.482.482 0 01.035-.06.3.3 0 01.009-.014l.003-.004-.002.003-.008.01-.033.031a1.81 1.81 0 01-.121.106l1.267 1.548c.157-.129.314-.272.44-.425.091-.11.33-.412.33-.838h-2zm-.034-.288a1.357 1.357 0 01-.103.077.47.47 0 01-.054.03c-.018.01.021-.013.104-.013v2c.54 0 .992-.28 1.314-.541l-1.261-1.553zm-.053.094h-3.894v2h3.894v-2zm-2.972 1.387c.808-1.925 1.443-3.49 1.904-4.692l-1.867-.716a170.718 170.718 0 01-1.881 4.634l1.844.774zm1.905-4.694a32.19 32.19 0 001.12-3.477l-1.937-.496a30.539 30.539 0 01-1.052 3.26l1.869.713zm1.152-3.725a.789.789 0 01-.115.416.286.286 0 01-.015.02s.01-.012.037-.038c.027-.025.064-.058.114-.098l-1.261-1.552c-.154.125-.31.266-.436.42-.093.113-.324.412-.324.832h2zm.021.3a1.375 1.375 0 01.16-.11c.019-.01-.026.016-.119.016v-2c-.539 0-.989.287-1.302.542l1.261 1.552z" fill="#fff"/><path d="M104.141 6.605c-.618.524-.926 1.16-.926 1.91 0 .743.203 1.489.609 2.239a7.989 7.989 0 001.442 1.898c.546.524.968.942 1.265 1.254.305.305.645.676 1.02 1.114.383.43.683.816.902 1.16.539.836.809 1.57.809 2.203 0 .625-.133 1.207-.399 1.746a4.852 4.852 0 01-1.113 1.476c-.477.438-1.09.801-1.84 1.09-.742.29-1.562.453-2.461.492.25-.359.375-.734.375-1.125 0-.398-.082-.8-.246-1.207a6.288 6.288 0 00-.75-1.324 22.417 22.417 0 00-1.816-2.226 67.364 67.364 0 01-1.395-1.559 17.4 17.4 0 01-.879-1.184c-.64-.921-.96-1.847-.96-2.777 0-.93.284-1.793.855-2.59.57-.797 1.34-1.425 2.308-1.886.977-.461 2.043-.696 3.2-.704zm3.902 7.079c0-.758-.137-1.54-.41-2.344-.539-1.57-1.438-2.836-2.695-3.797.015-.14.148-.309.398-.504s.457-.293.621-.293c.57 0 1.234.113 1.992.34.766.226 1.371.445 1.817.656.039.235.058.645.058 1.23 0 .579-.054 1.305-.164 2.18-.109.868-.242 1.555-.398 2.063-.047.117-.215.226-.504.328-.281.094-.52.14-.715.14zm-5.613 8.484c-.094.531-.239.887-.434 1.066-.82 0-1.789-.105-2.906-.316-1.117-.211-1.93-.48-2.438-.809a17.5 17.5 0 01-.011-.738c0-1.523.18-2.969.539-4.336.03-.125.164-.281.398-.469.234-.195.445-.293.633-.293.18.86.5 1.723.96 2.59.47.867.997 1.602 1.583 2.203.594.594 1.152.961 1.676 1.102zm16.992-7.277c1.859.203 3.219.433 4.078.691 0 .43-.09.746-.27.95-1.281.077-2.656.28-4.125.609a108.97 108.97 0 00-.527 5.086c0 .101-.125.257-.375.468-.25.203-.465.305-.644.305h-5.461c1.047-3.79 1.82-8.852 2.32-15.188 0-.101.129-.253.387-.457.257-.203.476-.304.656-.304h5.437a99.87 99.87 0 00-1.476 7.84zm5.039-.739a14.073 14.073 0 00-1.066-3.527c-.524-1.172-1.051-2.05-1.583-2.637.04-.375.153-.687.34-.937h4.254c-.054.758-.172 1.777-.351 3.058a40.81 40.81 0 01-.575 3.258c-.031.133-.164.297-.398.492-.234.196-.441.293-.621.293zm-.539 4.032c.086-.11.281-.266.586-.47.304-.202.543-.304.715-.304-.266 2.32-.516 3.902-.75 4.746-.071.157-.211.336-.422.54-.211.202-.383.304-.516.304h-4.301a15.92 15.92 0 004.688-4.816zM134.668 23c-1.57-5.39-3.461-10.453-5.672-15.188 0-.101.125-.253.375-.457.258-.203.477-.304.656-.304h6c.891 3.047 1.746 5.68 2.567 7.898.82 2.211 1.851 4.637 3.094 7.278 0 .101-.126.257-.376.468-.25.203-.464.305-.644.305h-6zm4.559-8.45c.445-1.476.668-2.757.668-3.843 0-.516-.047-.969-.141-1.36-.094-.398-.258-.91-.492-1.534 0-.102.125-.254.375-.458.258-.203.476-.304.656-.304h3.738a89.386 89.386 0 00-2.285 3.656 22.823 22.823 0 00-1.5 3.047c-.047.125-.184.289-.41.492-.227.203-.43.305-.609.305zm-7.735.903c-.445 1.43-.668 2.637-.668 3.621 0 .985.211 2.035.633 3.153 0 .101-.129.257-.387.468-.25.203-.465.305-.644.305h-3.75c1.836-2.82 3.097-5.078 3.785-6.773.047-.125.184-.286.41-.48.234-.196.441-.294.621-.294zM105.148 52h-5.46c1.148-4.148 1.964-9.21 2.449-15.188 0-.101.125-.253.375-.456.258-.204.472-.305.644-.305h5.227c-1.008 4.242-1.742 9.3-2.203 15.176 0 .101-.125.257-.375.468-.25.203-.469.305-.657.305zm5.485-8.613c0-1.07-.172-2.258-.516-3.563-.336-1.304-.699-2.25-1.09-2.836.047-.36.164-.672.352-.937h3.644a69.444 69.444 0 01-.996 6.562c-.031.117-.222.278-.574.48-.344.196-.617.294-.82.294zm-14.274-.012c.063-.914.211-2.113.446-3.598.234-1.492.41-2.457.527-2.894.055-.156.188-.332.399-.528.218-.203.398-.304.538-.304h3.563c-.797.953-1.41 1.832-1.84 2.636a2155.397 2155.397 0 01-2.133 4.055c-.046.086-.265.215-.656.387-.383.164-.664.246-.844.246zm25.055.516c1.859.203 3.219.433 4.078.691 0 .43-.09.746-.269.95a26.34 26.34 0 00-4.125.609 107.61 107.61 0 00-.528 5.086c0 .101-.125.257-.375.468-.25.203-.465.305-.644.305h-5.461c1.047-3.79 1.82-8.852 2.32-15.188 0-.101.129-.253.387-.456.258-.204.476-.305.656-.305h5.438a99.87 99.87 0 00-1.477 7.84zm5.039-.739a14.031 14.031 0 00-1.066-3.527c-.524-1.172-1.051-2.05-1.582-2.637.039-.375.152-.687.34-.937h4.253c-.054.758-.171 1.777-.351 3.058a41.313 41.313 0 01-.574 3.258c-.032.133-.164.297-.399.492-.234.196-.441.293-.621.293zm-.539 4.032c.086-.11.281-.266.586-.47.305-.202.543-.304.715-.304-.266 2.32-.516 3.903-.75 4.746-.07.157-.211.336-.422.54-.211.202-.383.304-.516.304h-4.3a15.929 15.929 0 004.687-4.816zM142.613 52h-5.449c-.609-4.86-1.379-9.078-2.309-12.656.454-.922.84-1.766 1.161-2.532.054-.117.195-.273.422-.468.234-.196.433-.293.597-.293h3.727c.32 2.36.75 4.988 1.289 7.886.547 2.891 1.078 5.32 1.594 7.29 0 .101-.125.257-.375.468-.25.203-.469.305-.657.305zm-9.363-2.074l.035 1.3c0 .102-.129.258-.387.47-.25.202-.464.304-.644.304h-3.738c1.234-2.094 3.148-5.93 5.742-11.508.07.203.105.489.105.856 0 .359-.054.883-.164 1.57-.101.688-.234 1.5-.398 2.438-.164.93-.285 1.683-.363 2.261 1.124.172 1.941.364 2.449.574 0 .47-.078.817-.235 1.043-.812.07-1.613.176-2.402.317v.375zM162.5 52h-5.168c.047-1.922.07-3.879.07-5.871 0-1.992-.097-4.254-.293-6.785.266-.555.637-1.399 1.114-2.532.054-.124.195-.28.422-.468.226-.196.425-.293.597-.293h3.586a64.961 64.961 0 00-.082 3.433c0 3.938.262 7.852.785 11.743 0 .101-.125.257-.375.468-.25.203-.468.305-.656.305zm-8.039-.61c-.055.118-.176.25-.363.4-.188.14-.336.21-.446.21h-1.863a87.629 87.629 0 00-1.277-6.14c-.524-2.15-1.043-3.919-1.559-5.31.031-.179.133-.726.305-1.64.18-.922.304-1.62.375-2.097.023-.11.156-.262.398-.458.242-.203.449-.304.621-.304h3.41c.54 3.125.985 5.238 1.336 6.34.36 1.093.688 1.968.985 2.625a103.977 103.977 0 00-1.922 6.375zm-5.766-7.863c.039 1.953.11 3.446.211 4.477.11 1.031.34 2.105.692 3.223 0 .101-.129.257-.387.468-.25.203-.469.305-.656.305h-3.739a163.473 163.473 0 001.817-4.477 30.233 30.233 0 001.043-3.234c0-.102.125-.254.375-.457s.465-.305.644-.305z" fill="#EE3E84"/><path d="M41.094 59.272c-12.81 4.925-27.24-1.492-32.163-14.302-1.529-3.976-2-8.3-1.371-12.543l-5.724-7.46c-.446-.538-.358-.87-.358-.715-.116-.304-.017-.745.12-1.05.183-.414.62-.263 1.07-.303l7.672.837c2.73-3.308 8.918-9.4 12.893-10.929 12.81-4.924 27.24 1.492 32.163 14.303 4.924 12.81-1.492 27.239-14.302 32.163z" fill="#fff"/><path d="M46.115 8c13.17-3.86 27.026 3.716 30.886 16.886 1.197 4.087-.43 13.799-1.403 17.975l7.91 4.4c.063.1.152.41.185.52.091.313.016.45-.145.743a1.245 1.245 0 01-1.084.648l-12.421 1.467c-2.99 3.073-5.84 3.934-9.928 5.132-13.17 3.86-27.026-3.716-30.885-16.886C25.37 25.715 32.945 11.86 46.115 8z" fill="#fff"/><ellipse cx="41.919" cy="34.631" rx="11.132" ry="10.001" transform="rotate(78.79 41.919 34.631)" fill="#EE3E84"/><path fill-rule="evenodd" clip-rule="evenodd" d="M37.27 12.37a1.636 1.636 0 00-.92.461c-6.064 6.099-10.688 15.305-8.908 24.288 1.78 8.983 9.567 15.73 17.499 19.055.337.14.696.159 1.026.076.337-.05.662-.205.92-.462 6.066-6.099 10.69-15.305 8.91-24.288-1.781-8.983-9.567-15.73-17.501-19.054a1.627 1.627 0 00-1.026-.076zm12.19 20.386c-.855-4.314-5.098-7.113-9.47-6.246-4.372.866-7.227 5.071-6.372 9.385.855 4.315 5.098 7.113 9.47 6.246 4.372-.866 7.227-5.07 6.372-9.385zm-3.169.628c.513 2.588-1.2 5.111-3.823 5.631-2.623.52-5.168-1.159-5.681-3.748-.513-2.588 1.2-5.11 3.823-5.63 2.623-.52 5.168 1.158 5.681 3.747z" fill="#EE3E84"/><path d="M11.001 37.365c.767 6.6 5.936 19.966 20.474 20.633m40.87-37.656c-3.214-5.555-4.206-5.674-8.373-8.293m-3.49-1.039c-1.273-.61-1.904-.872-3.412-.991" stroke="#133A67" stroke-width="2" stroke-linecap="round"/><g clip-path="url(#clip0_2314_7)"><path d="M40.039 25.095c.614 2.588 1.21 5.456.057 8.01-1.495 1.995-4.719 2.817-6.86 1.352-.247-.225-.452.119-.238.3.208.159.116.077.32.21.296.216.645.32.993.423 2.153.557 4.657-.215 6.035-1.935 2.763 3.247 2.537 7.72 2.863 11.7.094.332.218.684.278.973l-5.833 1.214c-3.133-4.905-6.789-9.903-7.1-15.872-.068-3.582 2.229-6.927 5.236-7.578 1.543-.321 3.317-.012 4.249 1.202zm3.946-2.909c3.38-.678 6.581 1.899 7.768 4.82 2.149 5.613.767 11.66.011 17.45l-5.736 1.194-.12-1.057c-1.29-3.78-3.396-7.742-2.153-11.798 2.332 1.3 5.832.597 7.257-1.737.11-.198-.21-.408-.34-.18-.465.901-1.34 1.41-2.245 1.775-1.482.61-3.192.488-4.584-.278-2.077-1.881-2.862-4.685-3.24-7.347.423-1.471 1.81-2.54 3.382-2.842zm-2.739 7.259c1.011 2.078 1.873 2.351.773 3.712-1.46-.853-.846-1.408-.773-3.712z" fill="#F5F5F5"/></g><defs><clipPath id="clip0_2314_7"><path fill="#fff" transform="rotate(-11.759 139.019 -110.922)" d="M0 0h29.234v29.234H0z"/></clipPath></defs></svg>