<svg width="58" height="58" fill="none" xmlns="http://www.w3.org/2000/svg"><rect width="58" height="58" rx="11" fill="url(#paint0_linear_2249_1171)"/><path d="M44.71 11.219V6.194H13.373v5.025H3.378v4.268c0 7.024 4.755 13.237 11.562 15.074l2.864.756c.432.648.918 1.243 1.459 1.837 1.782 1.837 3.943 3.025 6.429 3.62v4.862a5.926 5.926 0 01-5.943 5.944v3.836H38.28V47.58a5.926 5.926 0 01-5.944-5.944v-4.862c2.486-.54 4.647-1.73 6.43-3.62.54-.54 1.026-1.189 1.458-1.837l2.864-.756c6.808-1.837 11.562-8.05 11.562-15.074v-4.268h-9.94zM7.592 15.487v-.054h5.781c.054 1.891.27 6.375 1.837 10.806-4.538-1.621-7.618-5.89-7.618-10.752zm26.69 12.75l-5.24-2.809-5.241 2.81 1.08-5.836-4.322-4.106 5.889-.81 2.593-5.349 2.593 5.349 5.89.81-4.323 4.106 1.081 5.835zm16.209-12.75c0 4.862-3.08 9.13-7.618 10.751 1.567-4.43 1.783-8.968 1.837-10.805h5.781v.054z" fill="#E2AE5B"/><path d="M2.652 36.204v-3.28h1v-9h-1v-3.28h13.5v6.04h-4.48v-2.76h-2.42v3.16h1.76v2.28h-1.76v3.56h2.42v-3.16h4.48v6.44h-13.5zm14.258 0v-3.28h1v-9h-1v-3.28h8.44v3.28h-1.84v9h1.8v-1.84h3.98v5.12H16.91zm13.066 0v-3.28h1v-9h-1v-3.28h7.6v3.28h-1v9h1v3.28h-7.6zm23.319-10.72h-3.44v-1.56h-1.28v9h1.4v3.28h-8.4v-3.28h1.4v-9h-1.28v1.56h-3.44v-4.84h15.04v4.84z" fill="#674600"/><defs><linearGradient id="paint0_linear_2249_1171" x1="29.282" y1="-4.505" x2="29.282" y2="73.204" gradientUnits="userSpaceOnUse"><stop stop-color="#F0C573"/><stop offset=".266" stop-color="#FDDFA2"/><stop offset=".495" stop-color="#E8B75A"/><stop offset=".708" stop-color="#F8DA99"/><stop offset=".922" stop-color="#A48956"/></linearGradient></defs></svg>