<?xml version="1.0" encoding="utf-8"?><svg viewBox="0 0 33 32" xmlns="http://www.w3.org/2000/svg" xmlns:xlink="http://www.w3.org/1999/xlink"><style>:root>svg{display:none}:root>svg:target{display:block}</style><svg viewBox="0 0 7 12" id="arrow-nav" xmlns="http://www.w3.org/2000/svg"><g clip-path="url(#aclip0_2168_56)"><path d="M.987 11.732l-.972-.961 5.057-5.002L.015.768l.972-.962 5.057 5.001.973.962-6.03 5.963z"/></g><defs><clipPath id="aclip0_2168_56"><path transform="rotate(180 3.5 6)" d="M0 0h7v12H0z"/></clipPath></defs></svg><svg viewBox="0 0 26 27" id="close-icon" xmlns="http://www.w3.org/2000/svg"><path d="M25.525 3.747l-9.123 9.382 9.123 9.382-3.642 3.748-9.12-9.386-9.12 9.386L0 22.51l9.123-9.382L0 3.747 3.643 0l9.12 9.385L21.883 0l3.642 3.747z"/></svg><svg viewBox="0 0 33 32" id="filter" xmlns="http://www.w3.org/2000/svg"><path d="M19.584 16.032h-2.592V.96a.96.96 0 10-1.92 0v15.072H12.48a.96.96 0 00-.96.96v7.104c0 .53.43.96.96.96h2.592v5.088a.96.96 0 101.92 0v-5.088h2.592c.53 0 .96-.43.96-.96v-7.104a.96.96 0 00-.96-.96zm-.96 7.104H13.44v-5.184h5.184v5.184zM8.064 6.048H5.472V.96a.96.96 0 10-1.92 0v5.088H.96a.96.96 0 00-.96.96v7.104c0 .53.43.96.96.96h2.592v15.072a.96.96 0 101.92 0V15.072h2.592c.53 0 .96-.43.96-.96V7.008a.96.96 0 00-.96-.96zm-.96 7.104H1.92V7.968h5.184v5.184zm24-7.104h-2.592V.96a.96.96 0 10-1.92 0v5.088H24a.96.96 0 00-.96.96v7.104c0 .53.43.96.96.96h2.592v15.072a.96.96 0 101.92 0V15.072h2.592c.53 0 .96-.43.96-.96V7.008a.96.96 0 00-.96-.96zm-.96 7.104H24.96V7.968h5.184v5.184z"/></svg></svg>