<svg width="58" height="58" viewBox="0 0 58 58" fill="none" xmlns="http://www.w3.org/2000/svg">
<rect width="58" height="58" rx="11" fill="url(#paint0_linear_2249_1171)"/>
<path d="M44.7099 11.2187V6.19418H13.3732V11.2187H3.37793V15.4867C3.37793 22.5106 8.13255 28.7238 14.9401 30.5607L17.8036 31.3171C18.2359 31.9654 18.722 32.5597 19.2625 33.154C21.0454 34.9909 23.2065 36.1795 25.692 36.7739V41.6363C25.692 44.9321 23.0445 47.5797 19.7486 47.5797V51.4159H38.2805V47.5797C34.9847 47.5797 32.3371 44.9322 32.3371 41.6363V36.7739C34.8226 36.2335 36.9836 35.0448 38.7666 33.154C39.3071 32.6136 39.7933 31.9654 40.2255 31.3171L43.089 30.5607C49.8965 28.7239 54.6512 22.5104 54.6512 15.4867V11.2187H44.7099ZM7.59217 15.4867V15.4328H13.3734C13.4273 17.324 13.6437 21.808 15.2103 26.2386C10.672 24.6176 7.59217 20.3496 7.59217 15.4869V15.4867ZM34.2823 28.2375L29.0416 25.4283L23.8008 28.2375L24.8813 22.4024L20.5589 18.2963L26.4479 17.486L29.0412 12.1371L31.6345 17.486L37.5235 18.2963L33.2011 22.4024L34.2823 28.2375ZM50.491 15.4867C50.491 20.3491 47.4111 24.6177 42.8728 26.2384C44.4395 21.8079 44.6558 17.2696 44.7097 15.4327H50.491V15.4867Z" fill="#E2AE5B"/>
<path d="M2.65195 36.2039V32.9239H3.65195V23.9239H2.65195V20.6439H16.152V26.6839H11.672V23.9239H9.25195V27.0839H11.012V29.3639H9.25195V32.9239H11.672V29.7639H16.152V36.2039H2.65195ZM16.9098 36.2039V32.9239H17.9098V23.9239H16.9098V20.6439H25.3498V23.9239H23.5098V32.9239H25.3098V31.0839H29.2898V36.2039H16.9098ZM29.9762 36.2039V32.9239H30.9762V23.9239H29.9762V20.6439H37.5762V23.9239H36.5762V32.9239H37.5762V36.2039H29.9762ZM53.2946 25.4839H49.8546V23.9239H48.5746V32.9239H49.9746V36.2039H41.5746V32.9239H42.9746V23.9239H41.6946V25.4839H38.2546V20.6439H53.2946V25.4839Z" fill="#674600"/>
<defs>
<linearGradient id="paint0_linear_2249_1171" x1="29.2816" y1="-4.50485" x2="29.2816" y2="73.2039" gradientUnits="userSpaceOnUse">
<stop stop-color="#F0C573"/>
<stop offset="0.265625" stop-color="#FDDFA2"/>
<stop offset="0.494792" stop-color="#E8B75A"/>
<stop offset="0.708333" stop-color="#F8DA99"/>
<stop offset="0.921875" stop-color="#A48956"/>
</linearGradient>
</defs>
</svg>
