<svg width="38" height="37" fill="none" xmlns="http://www.w3.org/2000/svg"><path d="M19 22.458c4.547 0 8.26-3.712 8.26-8.26 0-4.547-3.713-8.259-8.26-8.259s-8.26 3.712-8.26 8.26c0 4.547 3.713 8.259 8.26 8.259z" fill="#fff"/><path d="M19 0C8.838 0 .58 8.26.58 18.42.58 28.583 8.837 36.843 19 36.843c10.162 0 18.42-8.26 18.42-18.421C37.42 8.259 29.162 0 19 0zm0 2.784c8.63 0 15.637 7.006 15.637 15.637 0 3.34-1.067 6.45-2.877 9.002-1.624-2.367-4.13-3.99-6.96-4.362a1.906 1.906 0 00-1.485.371c-1.253.928-2.738 1.392-4.315 1.392-1.578 0-3.063-.464-4.315-1.392a1.86 1.86 0 00-1.485-.371c-2.83.371-5.382 1.995-6.96 4.362a15.523 15.523 0 01-2.877-9.002C3.363 9.791 10.37 2.784 19 2.784z" fill="#fff"/></svg>