<svg width="71" height="24" fill="none" xmlns="http://www.w3.org/2000/svg"><path fill-rule="evenodd" clip-rule="evenodd" d="M9.154 7.811l-3.796.227c-2.01 0-3.572 1.585-2.902 3.622-1.786 1.133-2.68 3.17-2.457 5.208.447 2.038 2.233 3.623 4.243 3.85h1.786c-1.786-4.756 1.563-9.736 6.474-9.736 5.136 0 8.485 4.98 6.699 9.735h29.472c-1.786-4.755 1.563-9.735 6.698-9.735 4.912 0 8.26 4.98 6.698 9.735h7.368c.893 0 1.563-.68 1.563-1.585v-4.98c0-3.85-8.038-7.925-20.764-7.7L37.956.567h-9.6c-4.912.906-11.388 3.396-19.202 7.245zm3.349 4.755c3.126 0 5.582 2.49 5.582 5.434 0 3.17-2.456 5.66-5.582 5.66-2.903 0-5.359-2.49-5.359-5.66 0-2.943 2.456-5.434 5.359-5.434zm42.868 0c2.902 0 5.358 2.49 5.358 5.434 0 3.17-2.456 5.66-5.358 5.66-3.126 0-5.582-2.49-5.582-5.66 0-2.943 2.456-5.434 5.582-5.434zM28.578 2.151c-3.349-.453-3.795 1.358-1.116 4.755h20.094L37.732 2.15h-9.154zm34.16 8.15c3.573 0 5.582 1.586 6.252 3.397h-6.25v-3.396z" fill="#EE3E84"/></svg>