<svg width="34" height="34" fill="none" xmlns="http://www.w3.org/2000/svg"><g clip-path="url(#clip0_2215_689)"><path fill-rule="evenodd" clip-rule="evenodd" d="M4.383 13.605l-1.817.107c-.963 0-1.711.749-1.39 1.711A2.55 2.55 0 000 17.883c.213.961 1.069 1.71 2.031 1.817h.855c-.855-2.246.749-4.598 3.1-4.598 2.46 0 4.064 2.352 3.208 4.598h14.114c-.855-2.246.748-4.598 3.207-4.598 2.353 0 3.956 2.352 3.208 4.598h3.528a.731.731 0 00.749-.749V16.6c0-1.818-3.85-3.742-9.944-3.635l-5.88-2.78h-4.598c-2.352.428-5.453 1.604-9.195 3.421zm1.604 2.246c1.497 0 2.673 1.176 2.673 2.566a2.647 2.647 0 01-2.673 2.673c-1.39 0-2.566-1.176-2.566-2.673 0-1.39 1.176-2.566 2.566-2.566zm20.528 0c1.39 0 2.566 1.176 2.566 2.566 0 1.497-1.176 2.673-2.566 2.673a2.647 2.647 0 01-2.673-2.673c0-1.39 1.177-2.566 2.673-2.566zm-12.83-4.919c-1.604-.213-1.817.642-.535 2.246h9.623l-4.704-2.246h-4.384zm16.359 3.85c1.71 0 2.673.748 2.993 1.603h-2.993v-1.604z" fill="#20E290"/></g><defs><clipPath id="clip0_2215_689"><path fill="#fff" d="M0 0h34v34H0z"/></clipPath></defs></svg>