<svg width="19" height="16" fill="none" xmlns="http://www.w3.org/2000/svg"><path d="M12.66 3.76l-3.1 6.4-3.06-6.4-2.54 7.72h-.44v.86H6.1v-.82h-.4l1.26-3.46 2.28 4.28h.62l2.28-4.32 1.28 3.46h-.46v.86h2.64v-.86h-.46l-2.48-7.72z" fill="#EE3E84"/><path d="M9.5.4c-2.42 0-4.7.96-6.4 2.68C1.42 4.8.5 7.06.52 9.44c0 2.08.74 4.12 2.08 5.74.08.1.18.14.3.14h2.64c2.02 0 4.62.02 6.78.02 1.76 0 3.24 0 3.9-.02.12 0 .22-.06.3-.16a9.091 9.091 0 002.02-5.74C18.54 4.46 14.48.4 9.5.4zM16 14.52c-1.72.04-7.18.02-10.48 0H3.08a8.204 8.204 0 01.6-10.88C5.24 2.08 7.3 1.2 9.5 1.2c4.54 0 8.24 3.7 8.24 8.24 0 1.86-.6 3.62-1.74 5.08z" fill="#EE3E84"/></svg>