<svg width="20" height="22" fill="none" xmlns="http://www.w3.org/2000/svg"><path d="M14.422 22C6.47 22 0 14.883 0 6.136c.003-1.5.501-2.948 1.402-4.075C2.302.934 3.545.206 4.897.011a1.51 1.51 0 01.994.228c.3.19.538.48.679.83l2.013 5.166a1.91 1.91 0 01-.14 1.664L6.78 10.697c.753 1.68 1.993 3.037 3.526 3.856l2.513-1.84a1.438 1.438 0 011.512-.143l4.698 2.203c.317.155.58.416.754.747.173.33.245.714.207 1.093-.177 1.488-.84 2.854-1.864 3.845-1.024.99-2.34 1.539-3.704 1.542zM5.098 1.763c-.967.136-1.855.656-2.498 1.46a4.67 4.67 0 00-.998 2.913c.003 3.74 1.355 7.324 3.758 9.968 2.404 2.644 5.663 4.13 9.062 4.133.974.001 1.915-.389 2.647-1.097.732-.707 1.204-1.684 1.329-2.747L13.7 14.189l-2.504 1.84a1.477 1.477 0 01-1.572.121c-1.866-.993-3.376-2.645-4.287-4.693a1.915 1.915 0 01.1-1.73L7.111 6.93 5.098 1.763z" fill="#133A67"/></svg>