<svg width="57" height="46" viewBox="0 0 57 46" fill="none" xmlns="http://www.w3.org/2000/svg">
<path d="M23.75 0.75V6.1175L28.5 9.27625V5.5H52.25V41.125H40.375V45.875H57V0.75H23.75ZM17.8125 7.875L0 19.75V45.875H35.625V19.75L17.8125 7.875ZM33.25 10.25V12.4587L37.0737 15H38V10.25H33.25ZM42.75 10.25V15H47.5V10.25H42.75ZM17.8125 13.8125L30.875 22.125V41.125H23.75V26.875H11.875V41.125H4.75V22.125L17.8125 13.8125ZM42.75 19.75V24.5H47.5V19.75H42.75ZM42.75 29.25V34H47.5V29.25H42.75Z" fill="#EE3E84"/>
</svg>
