<svg width="38" height="37" viewBox="0 0 38 37" fill="none" xmlns="http://www.w3.org/2000/svg">
<path d="M18.9999 22.4576C23.547 22.4576 27.2591 18.7455 27.2591 14.1984C27.2591 9.65129 23.547 5.93921 18.9999 5.93921C14.4528 5.93921 10.7407 9.65129 10.7407 14.1984C10.7407 18.7459 14.4528 22.4576 18.9999 22.4576Z" fill="white"/>
<path d="M18.9999 0C8.8383 0 0.579102 8.2592 0.579102 18.4208C0.579102 28.5824 8.8383 36.8416 18.9999 36.8416C29.1615 36.8416 37.4207 28.5824 37.4207 18.4208C37.4207 8.2592 29.1615 0 18.9999 0ZM18.9999 2.78417C27.6303 2.78417 34.6367 9.79049 34.6367 18.421C34.6367 21.7618 33.5696 24.8706 31.76 27.4226C30.1358 25.0563 27.6304 23.4322 24.8 23.0609C24.2896 22.968 23.7329 23.1072 23.315 23.4321C22.0621 24.36 20.5775 24.8242 19 24.8242C17.4225 24.8242 15.9375 24.3601 14.685 23.4321C14.2674 23.1072 13.757 22.968 13.2 23.0609C10.3696 23.4321 7.8175 25.0559 6.23999 27.4226C4.43039 24.8705 3.36327 21.7618 3.36327 18.421C3.36327 9.79057 10.3696 2.78417 19.0001 2.78417H18.9999Z" fill="white"/>
</svg>
