<svg width="71" height="24" viewBox="0 0 71 24" fill="none" xmlns="http://www.w3.org/2000/svg">
<path fill-rule="evenodd" clip-rule="evenodd" d="M9.15381 7.81131L5.35815 8.03792C3.34865 8.03792 1.78594 9.62295 2.45557 11.6604C0.669512 12.7927 -0.223566 14.8301 -0.000524838 16.868C0.445994 18.9058 2.23212 20.4905 4.24162 20.7171H6.02768C4.24162 15.9623 7.59069 10.9815 12.5025 10.9815C17.6377 10.9815 20.9868 15.9624 19.2007 20.7171H48.6728C46.8868 15.9623 50.2358 10.9815 55.3711 10.9815C60.2828 10.9815 63.6319 15.9624 62.0693 20.7171H69.4372C70.3302 20.7171 71.0002 20.0377 71.0002 19.1321V14.1511C71.0002 10.302 62.9624 6.22671 50.2357 6.45289L37.9558 0.565964H28.3554C23.4436 1.47159 16.968 3.96231 9.15391 7.81133L9.15381 7.81131ZM12.503 12.5661C15.6286 12.5661 18.0847 15.0568 18.0847 18.0002C18.0847 21.1699 15.6286 23.6606 12.503 23.6606C9.6004 23.6606 7.14431 21.1699 7.14431 18.0002C7.14431 15.0568 9.6004 12.5661 12.503 12.5661ZM55.3708 12.5661C58.2733 12.5661 60.7294 15.0568 60.7294 18.0002C60.7294 21.1699 58.2733 23.6606 55.3708 23.6606C52.2451 23.6606 49.789 21.1699 49.789 18.0002C49.789 15.0568 52.2451 12.5661 55.3708 12.5661ZM28.5784 2.15078C25.2292 1.69797 24.7827 3.50921 27.4619 6.90555H47.5559L37.732 2.15078H28.5784ZM62.7385 10.3018C66.3107 10.3018 68.3203 11.8868 68.9903 13.6981H62.7385V10.3018Z" fill="#EE3E84"/>
</svg>
