<svg width="34" height="34" viewBox="0 0 34 34" fill="none" xmlns="http://www.w3.org/2000/svg">
<g clip-path="url(#clip0_2215_689)">
<path fill-rule="evenodd" clip-rule="evenodd" d="M4.38328 13.6053L2.56564 13.7124C1.60334 13.7124 0.855003 14.4608 1.17567 15.423C0.320378 15.9577 -0.107294 16.9198 -0.000485156 17.8821C0.213341 18.8444 1.06867 19.5928 2.03097 19.6998H2.88626C2.03097 17.4544 3.63475 15.1024 5.98687 15.1024C8.44599 15.1024 10.0498 17.4545 9.19448 19.6998H23.3079C22.4526 17.4544 24.0564 15.1024 26.5155 15.1024C28.8676 15.1024 30.4714 17.4545 29.7231 19.6998H33.2514C33.679 19.6998 33.9999 19.3789 33.9999 18.9513V16.5991C33.9999 14.7815 30.1508 12.8571 24.0563 12.9639L18.1758 10.1839H13.5784C11.2263 10.6116 8.12527 11.7878 4.38333 13.6054L4.38328 13.6053ZM5.98711 15.8507C7.48389 15.8507 8.66004 17.0268 8.66004 18.4168C8.66004 19.9136 7.48389 21.0897 5.98711 21.0897C4.59714 21.0897 3.42098 19.9136 3.42098 18.4168C3.42098 17.0268 4.59714 15.8507 5.98711 15.8507ZM26.5153 15.8507C27.9053 15.8507 29.0815 17.0268 29.0815 18.4168C29.0815 19.9136 27.9053 21.0897 26.5153 21.0897C25.0186 21.0897 23.8424 19.9136 23.8424 18.4168C23.8424 17.0268 25.0186 15.8507 26.5153 15.8507ZM13.6852 10.9323C12.0814 10.7185 11.8676 11.5738 13.1505 13.1776H22.773L18.0686 10.9323H13.6852ZM30.0436 14.7814C31.7542 14.7814 32.7165 15.5299 33.0374 16.3852H30.0436V14.7814Z" fill="#20E290"/>
</g>
<defs>
<clipPath id="clip0_2215_689">
<rect width="34" height="34" fill="white"/>
</clipPath>
</defs>
</svg>
