<svg width="20" height="22" viewBox="0 0 20 22" fill="none" xmlns="http://www.w3.org/2000/svg">
<path d="M14.4217 22C6.46973 22 0 14.8833 0 6.13615C0.00300688 4.63576 0.501227 3.18761 1.40203 2.06097C2.30283 0.934317 3.54492 0.205827 4.89736 0.0109392C5.24213 -0.03111 5.59011 0.0487358 5.89083 0.238898C6.19156 0.429059 6.42941 0.71965 6.56988 1.06853L8.5829 6.2353C8.68732 6.50349 8.72919 6.79612 8.70471 7.08662C8.68022 7.37712 8.59016 7.6563 8.44269 7.8988L6.78019 10.697C7.53301 12.3776 8.77344 13.7343 10.3055 14.5528L12.8193 12.713C13.0395 12.5497 13.2939 12.4509 13.5585 12.4258C13.8231 12.4008 14.0892 12.4503 14.3315 12.5698L19.0286 14.7731C19.3458 14.9276 19.6099 15.1893 19.7828 15.5201C19.9557 15.8509 20.0283 16.2337 19.9901 16.6129C19.8129 18.1006 19.1506 19.4669 18.1264 20.4578C17.1022 21.4487 15.7857 21.9967 14.4217 22ZM5.09766 1.76257C4.13116 1.89924 3.24308 2.41873 2.5997 3.22379C1.95632 4.02884 1.60176 5.06425 1.60241 6.13615C1.60506 9.87512 2.95651 13.4601 5.36002 16.104C7.76352 18.7478 11.0226 20.2344 14.4217 20.2374C15.3961 20.2381 16.3374 19.848 17.0693 19.1403C17.8012 18.4326 18.2734 17.4557 18.3977 16.3926L13.7006 14.1893L11.1968 16.029C10.9665 16.1966 10.7006 16.2957 10.4251 16.317C10.1496 16.3382 9.87383 16.2808 9.62447 16.1502C7.75861 15.1574 6.24933 13.5049 5.33803 11.4571C5.21787 11.1838 5.16396 10.8809 5.1815 10.5779C5.19905 10.2748 5.28747 9.98194 5.43818 9.72755L7.11069 6.92934L5.09766 1.76257Z" fill="#133A67"/>
</svg>
