<svg width="11" height="13" viewBox="0 0 11 13" fill="none" xmlns="http://www.w3.org/2000/svg">
<path d="M1.95866 12.875V10.75H0.541992V9.33333H1.95866V7.91667H0.541992V6.5H1.95866V0.125H6.56283C7.64894 0.125 8.56977 0.502778 9.32533 1.25833C10.0809 2.01389 10.4587 2.93472 10.4587 4.02083C10.4587 5.10694 10.0809 6.02778 9.32533 6.78333C8.56977 7.53889 7.64894 7.91667 6.56283 7.91667H3.37533V9.33333H6.20866V10.75H3.37533V12.875H1.95866ZM3.37533 6.5H6.56283C7.24755 6.5 7.83192 6.25799 8.31595 5.77396C8.79998 5.28993 9.04199 4.70556 9.04199 4.02083C9.04199 3.33611 8.79998 2.75174 8.31595 2.26771C7.83192 1.78368 7.24755 1.54167 6.56283 1.54167H3.37533V6.5Z" fill="#133A67"/>
</svg>
