<svg width="33" height="32" viewBox="0 0 33 32" fill="none" xmlns="http://www.w3.org/2000/svg">
<path d="M19.5841 16.032H16.9921V0.96C16.9921 0.429641 16.5624 0 16.0321 0C15.5017 0 15.0721 0.429641 15.0721 0.96V16.032H12.48C11.9496 16.032 11.52 16.4616 11.52 16.992V24.096C11.52 24.6264 11.9496 25.056 12.48 25.056H15.0721V30.1439C15.0721 30.6743 15.5017 31.1039 16.0321 31.1039C16.5624 31.1039 16.9921 30.6743 16.9921 30.1439V25.056H19.5841C20.1145 25.056 20.5441 24.6264 20.5441 24.096V16.992C20.5441 16.4616 20.1145 16.032 19.5841 16.032ZM18.6241 23.136H13.44V17.9519H18.6241V23.136ZM8.06414 6.048H5.47207V0.960069C5.47207 0.42971 5.04243 6.85338e-05 4.51207 6.85338e-05C3.98171 6.85338e-05 3.55207 0.42971 3.55207 0.960069V6.048H0.96C0.429641 6.048 0 6.47764 0 7.008V14.112C0 14.6424 0.429641 15.072 0.96 15.072H3.55207V30.144C3.55207 30.6744 3.98171 31.104 4.51207 31.104C5.04243 31.104 5.47207 30.6744 5.47207 30.144V15.072H8.06414C8.5945 15.072 9.02414 14.6424 9.02414 14.112V7.008C9.02414 6.47764 8.5945 6.048 8.06414 6.048ZM7.10414 13.152H1.92V7.96786H7.10414V13.152ZM31.1041 6.048H28.5121V0.960069C28.5121 0.42971 28.0824 6.85338e-05 27.5521 6.85338e-05C27.0217 6.85338e-05 26.5921 0.42971 26.5921 0.960069V6.048H24C23.4696 6.048 23.04 6.47764 23.04 7.008V14.112C23.04 14.6424 23.4696 15.072 24 15.072H26.5921V30.144C26.5921 30.6744 27.0217 31.104 27.5521 31.104C28.0824 31.104 28.5121 30.6744 28.5121 30.144V15.072H31.1041C31.6345 15.072 32.0641 14.6424 32.0641 14.112V7.008C32.0641 6.47764 31.6345 6.048 31.1041 6.048ZM30.1441 13.152H24.96V7.96786H30.1441V13.152Z" fill="#EE3E84"/>
</svg>
